<svg width="28" height="28" viewBox="0 0 28 28" fill="none" xmlns="http://www.w3.org/2000/svg">
<g clip-path="url(#clip0_71_403)">
<path d="M15.0422 8.87188C13.1823 9.70092 9.46431 11.4188 3.88965 14.0239C2.98444 14.4102 2.50953 14.7879 2.4665 15.1572C2.39319 15.7828 3.12309 16.0289 4.11435 16.3623C4.24981 16.4084 4.39006 16.4546 4.53349 16.5058C5.51041 16.846 6.8236 17.2443 7.50569 17.2597C8.12562 17.2733 8.81728 16.9998 9.58065 16.4392C14.7888 12.6666 17.4773 10.7607 17.6462 10.7197C17.7657 10.6906 17.9315 10.653 18.043 10.7607C18.1546 10.8667 18.1434 11.0684 18.1323 11.1231C18.059 11.453 15.1999 14.3059 13.7178 15.7828C13.2557 16.2426 12.9289 16.5691 12.862 16.6443C12.7122 16.8101 12.5592 16.9691 12.4126 17.1212C11.5042 18.0579 10.8253 18.7622 12.4508 19.9109C13.2089 20.4469 13.8198 20.8926 14.4249 21.3342L14.4796 21.3741C15.1601 21.8715 15.839 22.3672 16.7187 22.986C16.9418 23.1433 17.1554 23.3056 17.3641 23.4646C18.1562 24.0714 18.8686 24.615 19.7483 24.5295C20.2582 24.4783 20.7873 23.9638 21.0551 22.427C21.6878 18.793 22.934 10.9231 23.2225 7.67875C23.24 7.40938 23.2293 7.13875 23.1906 6.87194C23.1674 6.65644 23.0696 6.45816 22.9165 6.3164C22.6886 6.1164 22.3348 6.07367 22.1754 6.07709C21.4567 6.09076 20.3539 6.50272 15.0422 8.87188Z" fill="white"/>
</g>
<defs>
<clipPath id="clip0_71_403">
<rect width="27.6923" height="27.6923" fill="white" transform="translate(0.153809 0.307617)"/>
</clipPath>
</defs>
</svg>
