<svg width="254" height="161" viewBox="0 0 254 161" fill="none" xmlns="http://www.w3.org/2000/svg">
<g clip-path="url(#clip0_67_214)">
<rect opacity="0.6" x="14" y="39" width="4" height="122" rx="2" fill="url(#paint0_linear_67_214)"/>
<rect opacity="0.6" x="51" y="67" width="4" height="94" rx="2" fill="url(#paint1_linear_67_214)"/>
<rect opacity="0.6" x="88" y="10" width="4" height="151" rx="2" fill="url(#paint2_linear_67_214)"/>
<rect opacity="0.6" x="125" y="56" width="4" height="105" rx="2" fill="url(#paint3_linear_67_214)"/>
<rect opacity="0.6" x="162" y="35" width="4" height="126" rx="2" fill="url(#paint4_linear_67_214)"/>
<rect opacity="0.6" x="199" width="4" height="161" rx="2" fill="url(#paint5_linear_67_214)"/>
<rect opacity="0.6" x="236" y="45" width="4" height="116" rx="2" fill="url(#paint6_linear_67_214)"/>
<rect y="53" width="32" height="96" rx="4" fill="url(#paint7_linear_67_214)"/>
<rect x="37" y="78" width="32" height="72" rx="4" fill="url(#paint8_linear_67_214)"/>
<rect x="74" y="27" width="32" height="122" rx="4" fill="url(#paint9_linear_67_214)"/>
<rect x="111" y="68" width="32" height="81" rx="4" fill="url(#paint10_linear_67_214)"/>
<rect x="148" y="49" width="32" height="100" rx="4" fill="url(#paint11_linear_67_214)"/>
<rect x="185" y="18" width="32" height="131" rx="4" fill="url(#paint12_linear_67_214)"/>
<rect x="222" y="58" width="32" height="91" rx="4" fill="url(#paint13_linear_67_214)"/>
</g>
<defs>
<linearGradient id="paint0_linear_67_214" x1="14.5509" y1="136.892" x2="23.3665" y2="136.257" gradientUnits="userSpaceOnUse">
<stop stop-color="#1068FF"/>
<stop offset="1" stop-color="#1BF4FF"/>
</linearGradient>
<linearGradient id="paint1_linear_67_214" x1="51.5509" y1="142.425" x2="60.3355" y2="141.604" gradientUnits="userSpaceOnUse">
<stop stop-color="#1068FF"/>
<stop offset="1" stop-color="#1BF4FF"/>
</linearGradient>
<linearGradient id="paint2_linear_67_214" x1="88.5509" y1="131.162" x2="97.3823" y2="130.648" gradientUnits="userSpaceOnUse">
<stop stop-color="#1068FF"/>
<stop offset="1" stop-color="#1BF4FF"/>
</linearGradient>
<linearGradient id="paint3_linear_67_214" x1="125.551" y1="140.252" x2="134.351" y2="139.515" gradientUnits="userSpaceOnUse">
<stop stop-color="#1068FF"/>
<stop offset="1" stop-color="#1BF4FF"/>
</linearGradient>
<linearGradient id="paint4_linear_67_214" x1="162.551" y1="136.102" x2="171.369" y2="135.487" gradientUnits="userSpaceOnUse">
<stop stop-color="#1068FF"/>
<stop offset="1" stop-color="#1BF4FF"/>
</linearGradient>
<linearGradient id="paint5_linear_67_214" x1="199.551" y1="129.186" x2="208.386" y2="128.703" gradientUnits="userSpaceOnUse">
<stop stop-color="#1068FF"/>
<stop offset="1" stop-color="#1BF4FF"/>
</linearGradient>
<linearGradient id="paint6_linear_67_214" x1="236.551" y1="138.078" x2="245.362" y2="137.41" gradientUnits="userSpaceOnUse">
<stop stop-color="#1068FF"/>
<stop offset="1" stop-color="#1BF4FF"/>
</linearGradient>
<linearGradient id="paint7_linear_67_214" x1="4.40719" y1="130.03" x2="50.5528" y2="96.2383" gradientUnits="userSpaceOnUse">
<stop stop-color="#1068FF"/>
<stop offset="1" stop-color="#1BF4FF"/>
</linearGradient>
<linearGradient id="paint8_linear_67_214" x1="41.4072" y1="135.772" x2="77.6997" y2="100.337" gradientUnits="userSpaceOnUse">
<stop stop-color="#1068FF"/>
<stop offset="1" stop-color="#1BF4FF"/>
</linearGradient>
<linearGradient id="paint9_linear_67_214" x1="78.4072" y1="124.892" x2="131.627" y2="94.2257" gradientUnits="userSpaceOnUse">
<stop stop-color="#1068FF"/>
<stop offset="1" stop-color="#1BF4FF"/>
</linearGradient>
<linearGradient id="paint10_linear_67_214" x1="115.407" y1="132.994" x2="155.841" y2="97.9015" gradientUnits="userSpaceOnUse">
<stop stop-color="#1068FF"/>
<stop offset="1" stop-color="#1BF4FF"/>
</linearGradient>
<linearGradient id="paint11_linear_67_214" x1="152.407" y1="129.24" x2="199.851" y2="95.8868" gradientUnits="userSpaceOnUse">
<stop stop-color="#1068FF"/>
<stop offset="1" stop-color="#1BF4FF"/>
</linearGradient>
<linearGradient id="paint12_linear_67_214" x1="189.407" y1="123.114" x2="244.447" y2="93.5772" gradientUnits="userSpaceOnUse">
<stop stop-color="#1068FF"/>
<stop offset="1" stop-color="#1BF4FF"/>
</linearGradient>
<linearGradient id="paint13_linear_67_214" x1="226.407" y1="131.018" x2="270.803" y2="96.7213" gradientUnits="userSpaceOnUse">
<stop stop-color="#1068FF"/>
<stop offset="1" stop-color="#1BF4FF"/>
</linearGradient>
<clipPath id="clip0_67_214">
<rect width="254" height="161" fill="white"/>
</clipPath>
</defs>
</svg>
