<svg width="155" height="155" viewBox="0 0 155 155" fill="none" xmlns="http://www.w3.org/2000/svg">
<g clip-path="url(#clip0_67_215)">
<path opacity="0.2" d="M110.002 155H118.315L155 118.287V110.002L110.002 155ZM87.1892 155H95.4748L155 95.4748V87.1619L87.1892 155ZM64.3494 155H72.635L155 72.635V64.3494L64.3494 155ZM41.5096 155H49.8224L155 49.8224V41.5096L41.5096 155ZM18.697 155H26.9826L155 26.9826V18.697L18.697 155ZM150.857 0L0 150.857V155H4.14278L155 4.14278V0H150.857ZM128.017 0L0 128.017V136.33L136.33 0H128.017ZM105.205 0L0 105.205V113.49L113.49 0H105.205ZM82.365 0L0 82.365V90.6506L90.6506 0H82.365ZM59.5252 0L0 59.5252V67.8381L67.8381 0H59.5252ZM36.7127 0L0 36.7127V44.9982L44.9982 0H36.7127ZM13.8729 0L0 13.8729V22.1857L22.1584 0H13.8729Z" fill="#4599EB"/>
</g>
<defs>
<clipPath id="clip0_67_215">
<rect width="155" height="155" fill="white"/>
</clipPath>
</defs>
</svg>
