<svg width="28" height="28" viewBox="0 0 28 28" fill="none" xmlns="http://www.w3.org/2000/svg">
<g clip-path="url(#clip0_71_402)">
<path d="M23.225 8.02449C24.2593 7.40613 25.0332 6.43246 25.4023 5.28526C24.4303 5.86195 23.3669 6.26819 22.258 6.48641C20.7206 4.8601 18.2848 4.46433 16.3116 5.52025C14.3384 6.57617 13.3163 8.82236 13.8165 11.0037C9.83528 10.8038 6.12608 8.92324 3.61188 5.82987C2.29978 8.09305 2.97029 10.9862 5.14419 12.4414C4.35809 12.4161 3.58942 12.2033 2.90227 11.8206C2.90227 11.8414 2.90227 11.8622 2.90227 11.883C2.90272 14.2404 4.56424 16.2711 6.87496 16.7383C6.1458 16.9367 5.38097 16.9659 4.63881 16.8237C5.28865 18.8398 7.14675 20.221 9.26458 20.2622C7.51054 21.6389 5.34436 22.3855 3.11458 22.3818C2.71935 22.3824 2.32444 22.3596 1.93188 22.3137C4.19618 23.7688 6.83154 24.5411 9.52304 24.5383C13.2676 24.5641 16.8661 23.0878 19.5139 20.4399C22.1616 17.792 23.6375 14.1932 23.6115 10.4487C23.6115 10.2341 23.6065 10.0206 23.5965 9.80834C24.5663 9.10749 25.4032 8.23928 26.068 7.24449C25.1646 7.64495 24.2063 7.90786 23.225 8.02449Z" fill="white"/>
</g>
<defs>
<clipPath id="clip0_71_402">
<rect width="27.6923" height="27.6923" fill="white" transform="translate(0.153809 0.307617)"/>
</clipPath>
</defs>
</svg>
