<svg width="355" height="107" viewBox="0 0 355 107" fill="none" xmlns="http://www.w3.org/2000/svg">
<g clip-path="url(#clip0_71_406)">
<g clip-path="url(#clip1_71_406)">
<path d="M32.1417 75.2893L31.4414 74.589L105.532 0.498731L357 0.498657V1.48751L105.942 1.48758L32.1417 75.2893Z" fill="#4298EB"/>
<path d="M31.7922 77.9159C33.4366 77.9159 34.7696 76.5828 34.7696 74.9384C34.7696 73.294 33.4366 71.9609 31.7922 71.9609C30.1478 71.9609 28.8147 73.294 28.8147 74.9384C28.8147 76.5828 30.1478 77.9159 31.7922 77.9159Z" fill="#4298EB"/>
<path d="M31.7902 85.3454C29.7333 85.3454 27.7225 84.7355 26.0122 83.5927C24.302 82.4499 22.969 80.8257 22.1818 78.9253C21.3946 77.0249 21.1887 74.9338 21.59 72.9164C21.9913 70.899 22.9818 69.0459 24.4363 67.5914C25.8907 66.1369 27.7438 65.1464 29.7613 64.7451C31.7787 64.3438 33.8698 64.5498 35.7701 65.337C37.6705 66.1241 39.2948 67.4571 40.4375 69.1674C41.5803 70.8777 42.1903 72.8884 42.1903 74.9454C42.187 77.7026 41.0902 80.346 39.1405 82.2957C37.1908 84.2453 34.5475 85.3421 31.7902 85.3454ZM31.7902 65.7151C29.9646 65.7151 28.18 66.2564 26.6621 67.2707C25.1442 68.2849 23.9611 69.7265 23.2625 71.4131C22.5639 73.0997 22.3811 74.9556 22.7373 76.7461C23.0934 78.5366 23.9725 80.1813 25.2634 81.4722C26.5543 82.763 28.199 83.6421 29.9895 83.9983C31.78 84.3544 33.6359 84.1717 35.3225 83.473C37.0091 82.7744 38.4507 81.5913 39.4649 80.0734C40.4792 78.5555 41.0205 76.7709 41.0205 74.9454C41.0189 72.4973 40.046 70.1498 38.3156 68.4182C36.5851 66.6865 34.2383 65.7121 31.7902 65.7088V65.7151Z" fill="#4298EB"/>
<path d="M31.7919 106.999C25.451 106.999 19.2525 105.119 13.9801 101.596C8.70772 98.0738 4.59832 93.0669 2.17157 87.2088C-0.255188 81.3507 -0.890297 74.9045 0.346553 68.6854C1.5834 62.4664 4.63666 56.7538 9.12021 52.27C13.6038 47.7862 19.3162 44.7327 25.5352 43.4955C31.7542 42.2584 38.2004 42.8932 44.0586 45.3197C49.9169 47.7461 54.924 51.8553 58.4468 57.1275C61.9696 62.3997 63.8499 68.5981 63.8499 74.939C63.8404 83.4386 60.4599 91.5873 54.4499 97.5975C48.44 103.608 40.2914 106.989 31.7919 106.999ZM31.7919 44.4407C25.7594 44.4404 19.8624 46.2289 14.8465 49.5802C9.83054 52.9314 5.92105 57.6948 3.61239 63.268C1.30373 68.8412 0.699601 74.9739 1.8764 80.8904C3.05319 86.807 5.95806 92.2417 10.2236 96.5072C14.4892 100.773 19.9239 103.678 25.8405 104.854C31.757 106.031 37.8897 105.427 43.4628 103.118C49.036 100.81 53.7995 96.9003 57.1507 91.8844C60.502 86.8685 62.2905 80.9714 62.2902 74.939C62.2807 66.8533 59.0645 59.1014 53.347 53.3839C47.6295 47.6664 39.8776 44.4502 31.7919 44.4407Z" fill="#4298EB"/>
</g>
</g>
<defs>
<clipPath id="clip0_71_406">
<rect width="355" height="107" fill="white" transform="matrix(-1 0 0 -1 355 107)"/>
</clipPath>
<clipPath id="clip1_71_406">
<rect width="355" height="107" fill="white"/>
</clipPath>
</defs>
</svg>
