<svg width="48" height="48" viewBox="0 0 48 48" fill="none" xmlns="http://www.w3.org/2000/svg">
<g clip-path="url(#clip0_71_409)">
<path d="M41.1256 33.8865L41.1247 33.8879L37.4441 40.2755C36.1934 42.4461 33.8781 43.7828 31.373 43.7807L24.0009 43.7744L23.9991 43.7744L16.627 43.7807C14.1219 43.7828 11.8066 42.4461 10.5559 40.2755L6.8753 33.8879L6.87445 33.8865L3.18296 27.5052C1.92855 25.3367 1.92855 22.6633 3.18295 20.4948L6.87445 14.1135L6.8753 14.1121L10.5559 7.72448C11.8066 5.55393 14.1219 4.2172 16.627 4.21933L23.9992 4.2256L24.0009 4.2256L31.373 4.21933C33.8781 4.2172 36.1934 5.55393 37.4441 7.72449L41.1247 14.1121L41.1256 14.1135L44.817 20.4948C46.0715 22.6633 46.0715 25.3367 44.817 27.5052L41.1256 33.8865Z" stroke="url(#paint0_linear_71_409)" stroke-width="2" stroke-linejoin="round"/>
</g>
<defs>
<linearGradient id="paint0_linear_71_409" x1="4.28571" y1="-1.46565" x2="5.88712" y2="47.4218" gradientUnits="userSpaceOnUse">
<stop stop-color="#00D179"/>
<stop offset="0.535416" stop-color="#4297FB"/>
<stop offset="1" stop-color="#995AFF"/>
</linearGradient>
<clipPath id="clip0_71_409">
<rect width="48" height="48" fill="white"/>
</clipPath>
</defs>
</svg>
